# xmcd
#
# Track frame offsets: 
#        150
#        20879
#        43228
#        63906
#        80493
#        96488
#        114091
#        134169
#        151261
#        174051
#        193768
#        218310
#        237904
#        261142
#        276751
#        296304
#
# Disc length: 4188 seconds
#
# Revision: 0
# Processed by: cddbd v1.5.2PL0 Copyright (c) Steve Scherf et al.
# Submitted via: ExactAudioCopy v0.95a5
#
DISCID=df105a10
DTITLE=Various Artist - 歌声飘过30年
DYEAR=2008
DGENRE=Avantgarde
TTITLE0=01-涛声依旧
TTITLE1=02-快乐老家
TTITLE2=03-我不想说
TTITLE3=04-黄昏放牛
TTITLE4=05-一封家书
TTITLE5=06-黄土高坡
TTITLE6=07-爱情鸟
TTITLE7=08-走四方
TTITLE8=09-流浪歌
TTITLE9=10-山沟沟
TTITLE10=11-月满西楼
TTITLE11=12-纤夫的爱
TTITLE12=13-弯弯的月亮
TTITLE13=14-山不转水转
TTITLE14=15-九月九的酒
TTITLE15=16-等你一万年
EXTD=
EXTT0=
EXTT1=
EXTT2=
EXTT3=
EXTT4=
EXTT5=
EXTT6=
EXTT7=
EXTT8=
EXTT9=
EXTT10=
EXTT11=
EXTT12=
EXTT13=
EXTT14=
EXTT15=
PLAYORDER=
